# Blender 3.3.1
# www.blender.org
mtllib Alacena.mtl
o Cube.003_Cube.012
v -2.392898 -0.011824 3.705115
v -2.392898 1.988176 3.705115
v -2.392898 -0.011823 2.731584
v -2.392898 1.608294 2.731584
v -0.392897 -0.011824 3.705115
v -0.392897 1.988176 3.705115
v -0.392897 -0.011823 2.731584
v -0.392897 1.608294 2.731584
v -2.392898 -0.011824 3.379365
v -2.392898 1.608293 3.379365
v -0.392897 -0.011824 3.379365
v -0.392897 1.608293 3.379365
v -0.392897 3.004786 3.379365
v -0.392897 3.004785 3.705116
v -2.392898 3.004785 3.705116
v -2.392898 3.004786 3.379365
vn -1.0000 -0.0000 -0.0000
vn -0.0000 -0.0000 -1.0000
vn 1.0000 -0.0000 -0.0000
vn -0.0000 -0.0000 1.0000
vn -0.0000 -1.0000 -0.0000
vn -0.0000 1.0000 -0.0000
vt 0.269016 0.009756
vt 0.349919 0.000180
vt 0.213288 0.147174
vt 0.213288 0.577020
vt 0.269016 0.447800
vt 0.004053 0.147174
vt 0.573147 0.148718
vt 0.349919 0.170421
vt 0.004053 0.495375
vt 0.573147 0.432027
vt 0.704557 0.004919
vt 0.707061 0.009756
vt 0.000180 0.000180
vt 0.704557 0.447040
vt 0.707061 0.447800
vt 0.223408 0.148718
vt 0.000180 0.170421
vt 0.919766 0.004919
vt 0.223408 0.432027
vt 0.919767 0.363063
vt 0.349919 0.057144
vt 0.143277 0.147174
vt 0.573147 0.545304
vt 0.143277 0.495375
vt 0.572901 0.546654
vt 0.000180 0.057144
vt 0.776567 0.004919
vt 0.223408 0.545304
vt 0.776567 0.363063
vt 0.223162 0.546654
vt 0.776567 0.671773
vt 0.223162 0.793959
vt 0.223162 0.790858
vt 0.704557 0.671772
vt 0.223162 0.850922
vt 0.707061 0.670460
vt 0.572901 0.850922
vt 0.213288 0.795513
vt 0.269016 0.670460
vt 0.572901 0.793959
vt 0.143277 0.795513
vt 0.572901 0.790858
s 0
usemtl None
f 9/22/1 10/24/1 4/9/1 3/6/1
f 3/7/2 4/10/2 8/19/2 7/16/2
f 11/27/3 12/29/3 6/14/3 5/11/3
f 5/12/4 6/15/4 2/5/4 1/1/4
f 9/21/5 11/26/5 5/13/5 1/2/5
f 6/14/3 12/29/3 13/31/3 14/34/3
f 8/19/6 4/10/6 10/23/6 12/28/6
f 3/8/5 7/17/5 11/26/5 9/21/5
f 7/18/3 8/20/3 12/29/3 11/27/3
f 1/3/1 2/4/1 10/24/1 9/22/1
f 13/32/6 16/40/6 15/37/6 14/35/6
f 10/24/1 2/4/1 15/38/1 16/41/1
f 2/5/4 6/15/4 14/36/4 15/39/4
f 12/30/2 10/25/2 16/42/2 13/33/2
