# Blender 3.3.0
# www.blender.org
mtllib Escenario2.mtl
o Pared_referencia.001
v 2.950000 0.000000 3.800000
v 2.950000 4.300000 3.800000
v 2.950000 0.000000 -3.800000
v 2.950000 4.300000 -3.800000
v 3.050000 0.000000 3.800000
v 3.050000 4.300000 3.800000
v 3.050000 0.000000 -3.800000
v 3.050000 4.300000 -3.800000
vn -1.0000 -0.0000 -0.0000
vn -0.0000 -0.0000 -1.0000
vn 1.0000 -0.0000 -0.0000
vn -0.0000 -0.0000 1.0000
vn -0.0000 -1.0000 -0.0000
vn -0.0000 1.0000 -0.0000
vt 0.375000 0.000000
vt 0.375000 1.000000
vt 0.125000 0.750000
vt 0.625000 0.000000
vt 0.625000 1.000000
vt 0.875000 0.750000
vt 0.375000 0.250000
vt 0.125000 0.500000
vt 0.625000 0.250000
vt 0.875000 0.500000
vt 0.375000 0.750000
vt 0.625000 0.750000
vt 0.375000 0.500000
vt 0.625000 0.500000
s 0
f 1/1/1 2/4/1 4/9/1 3/7/1
f 3/7/2 4/9/2 8/14/2 7/13/2
f 7/13/3 8/14/3 6/12/3 5/11/3
f 5/11/4 6/12/4 2/5/4 1/2/4
f 3/8/5 7/13/5 5/11/5 1/3/5
f 8/14/6 4/10/6 2/6/6 6/12/6
o Suelo
v -3.000000 0.000000 3.800000
v 3.000000 0.000000 3.800000
v -3.000000 0.000000 -3.800000
v 3.000000 0.000000 -3.800000
vn -0.0000 1.0000 -0.0000
vt 0.000000 0.000000
vt 1.000000 0.000000
vt 0.000000 1.000000
vt 1.000000 1.000000
s 0
f 9/15/7 10/16/7 12/18/7 11/17/7
o Pared_referencia.002
v 3.015000 0.000000 3.814999
v 3.015000 4.300000 3.814999
v -2.985000 0.000000 3.814999
v -2.985000 4.300000 3.814999
v 3.015000 0.000000 3.714999
v 3.015000 4.300000 3.714999
v -2.985000 0.000000 3.714999
v -2.985000 4.300000 3.714999
vn -0.0000 -0.0000 1.0000
vn -1.0000 -0.0000 -0.0000
vn -0.0000 -0.0000 -1.0000
vn 1.0000 -0.0000 -0.0000
vn -0.0000 -1.0000 -0.0000
vn -0.0000 1.0000 -0.0000
vt 0.375000 0.000000
vt 0.375000 1.000000
vt 0.125000 0.750000
vt 0.625000 0.000000
vt 0.625000 1.000000
vt 0.875000 0.750000
vt 0.375000 0.250000
vt 0.125000 0.500000
vt 0.625000 0.250000
vt 0.875000 0.500000
vt 0.375000 0.750000
vt 0.625000 0.750000
vt 0.375000 0.500000
vt 0.625000 0.500000
s 0
f 13/19/8 14/22/8 16/27/8 15/25/8
f 15/25/9 16/27/9 20/32/9 19/31/9
f 19/31/10 20/32/10 18/30/10 17/29/10
f 17/29/11 18/30/11 14/23/11 13/20/11
f 15/26/12 19/31/12 17/29/12 13/21/12
f 20/32/13 16/28/13 14/24/13 18/30/13
o Pared_referencia.003
v 3.015000 0.000000 -3.689977
v 3.015000 4.300000 -3.689977
v -2.985000 0.000000 -3.689977
v -2.985000 4.300000 -3.689977
v 3.015000 0.000000 -3.789977
v 3.015000 4.300000 -3.789977
v -2.985000 0.000000 -3.789977
v -2.985000 4.300000 -3.789977
vn -0.0000 -0.0000 1.0000
vn -1.0000 -0.0000 -0.0000
vn -0.0000 -0.0000 -1.0000
vn 1.0000 -0.0000 -0.0000
vn -0.0000 -1.0000 -0.0000
vn -0.0000 1.0000 -0.0000
vt 0.375000 0.000000
vt 0.375000 1.000000
vt 0.125000 0.750000
vt 0.625000 0.000000
vt 0.625000 1.000000
vt 0.875000 0.750000
vt 0.375000 0.250000
vt 0.125000 0.500000
vt 0.625000 0.250000
vt 0.875000 0.500000
vt 0.375000 0.750000
vt 0.625000 0.750000
vt 0.375000 0.500000
vt 0.625000 0.500000
s 0
f 21/33/14 22/36/14 24/41/14 23/39/14
f 23/39/15 24/41/15 28/46/15 27/45/15
f 27/45/16 28/46/16 26/44/16 25/43/16
f 25/43/17 26/44/17 22/37/17 21/34/17
f 23/40/18 27/45/18 25/43/18 21/35/18
f 28/46/19 24/42/19 22/38/19 26/44/19
