# Blender 3.3.1
# www.blender.org
mtllib Escena_Uvs.mtl
o Pared_referencia.001
v 2.950000 -0.000001 3.800000
v 2.950000 4.300000 3.800001
v 2.950000 0.000001 -3.800000
v 2.950000 4.300001 -3.799999
v 3.050000 -0.000001 3.800000
v 3.050000 4.300000 3.800001
v 3.050000 0.000001 -3.800000
v 3.050000 4.300001 -3.799999
vn -1.0000 -0.0000 -0.0000
vn -0.0000 -0.0000 -1.0000
vn 1.0000 -0.0000 -0.0000
vn -0.0000 -0.0000 1.0000
vn -0.0000 -1.0000 -0.0000
vn -0.0000 1.0000 -0.0000
vt 0.021261 -1.254924
vt 0.021261 2.254924
vt -0.812201 1.377462
vt 0.854723 -1.254924
vt 0.854723 2.254924
vt 1.688185 1.377462
vt 0.021261 -0.377462
vt -0.812201 0.500000
vt 0.854723 -0.377462
vt 1.688185 0.500000
vt 0.021261 1.377462
vt 0.854723 1.377462
vt 0.021261 0.500000
vt 0.854723 0.500000
s 0
usemtl None
f 1/1/1 2/4/1 4/9/1 3/7/1
f 3/7/2 4/9/2 8/14/2 7/13/2
f 7/13/3 8/14/3 6/12/3 5/11/3
f 5/11/4 6/12/4 2/5/4 1/2/4
f 3/8/5 7/13/5 5/11/5 1/3/5
f 8/14/6 4/10/6 2/6/6 6/12/6
o Pared_referencia.002
v 3.015000 -0.000001 3.814999
v 3.015000 4.300000 3.815000
v -2.985000 -0.000001 3.814999
v -2.985000 4.300000 3.815000
v 3.015000 -0.000001 3.714999
v 3.015000 4.300000 3.715000
v -2.985000 -0.000001 3.714999
v -2.985000 4.300000 3.715000
vn -0.0000 -0.0000 1.0000
vn -1.0000 -0.0000 -0.0000
vn -0.0000 -0.0000 -1.0000
vn 1.0000 -0.0000 -0.0000
vn -0.0000 -1.0000 -0.0000
vn -0.0000 1.0000 -0.0000
vt -0.046662 -1.351807
vt -0.046662 2.351807
vt -0.972566 1.425904
vt 0.879241 -1.351807
vt 0.879241 2.351807
vt 1.805145 1.425904
vt -0.046662 -0.425904
vt -0.972566 0.500000
vt 0.879241 -0.425904
vt 1.805145 0.500000
vt -0.046662 1.425904
vt 0.879241 1.425904
vt -0.046662 0.500000
vt 0.879241 0.500000
s 0
usemtl None
f 9/15/7 10/18/7 12/23/7 11/21/7
f 11/21/8 12/23/8 16/28/8 15/27/8
f 15/27/9 16/28/9 14/26/9 13/25/9
f 13/25/10 14/26/10 10/19/10 9/16/10
f 11/22/11 15/27/11 13/25/11 9/17/11
f 16/28/12 12/24/12 10/20/12 14/26/12
o Pared_referencia.003
v 3.015000 0.000001 -3.689977
v 3.015000 4.300001 -3.689976
v -2.985000 0.000001 -3.689977
v -2.985000 4.300001 -3.689976
v 3.015000 0.000001 -3.789977
v 3.015000 4.300001 -3.789976
v -2.985000 0.000001 -3.789977
v -2.985000 4.300001 -3.789976
vn -0.0000 -0.0000 1.0000
vn -1.0000 -0.0000 -0.0000
vn -0.0000 -0.0000 -1.0000
vn 1.0000 -0.0000 -0.0000
vn -0.0000 -1.0000 -0.0000
vn -0.0000 1.0000 -0.0000
vt -0.029141 -1.382429
vt -0.029141 2.382429
vt -0.920003 1.441215
vt 0.861720 -1.382429
vt 0.861720 2.382429
vt 1.752581 1.441215
vt -0.029141 -0.441215
vt -0.920003 0.500000
vt 0.861720 -0.441215
vt 1.752581 0.500000
vt -0.029141 1.441215
vt 0.861720 1.441215
vt -0.029141 0.500000
vt 0.861720 0.500000
s 0
usemtl None
f 17/29/13 18/32/13 20/37/13 19/35/13
f 19/35/14 20/37/14 24/42/14 23/41/14
f 23/41/15 24/42/15 22/40/15 21/39/15
f 21/39/16 22/40/16 18/33/16 17/30/16
f 19/36/17 23/41/17 21/39/17 17/31/17
f 24/42/18 20/38/18 18/34/18 22/40/18
o Suelo
v -3.000000 -0.000001 3.800000
v 3.000000 -0.000001 3.800000
v -3.000000 0.000001 -3.800000
v 3.000000 0.000001 -3.800000
vn -0.0000 1.0000 -0.0000
vt 0.000000 0.000000
vt 1.000000 0.000000
vt 0.000000 1.000000
vt 1.000000 1.000000
s 0
usemtl None
f 25/43/19 26/44/19 28/46/19 27/45/19
