# Blender 3.3.1
# www.blender.org
mtllib Escoba_Uv.mtl
o Cube.002
v -1.706526 -0.037874 -2.286386
v -1.706526 0.100811 -2.242900
v -1.706526 0.004603 -2.421854
v -1.706526 0.143289 -2.378367
v -1.122699 -0.037874 -2.286386
v -1.122699 0.100811 -2.242900
v -1.122699 0.004603 -2.421854
v -1.122699 0.143289 -2.378367
vn -1.0000 -0.0000 -0.0000
vn -0.0000 0.2992 -0.9542
vn 1.0000 -0.0000 -0.0000
vn -0.0000 -0.2992 0.9542
vn -0.0000 -0.9542 -0.2992
vn -0.0000 0.9542 0.2992
vt 0.483846 0.326538
vt 0.466231 1.000000
vt 0.125000 0.641522
vt 0.516154 0.326538
vt 0.533768 1.000000
vt 0.875000 0.641522
vt 0.483846 0.358846
vt 0.466231 0.250000
vt 0.125000 0.608478
vt 0.516154 0.358846
vt 0.533768 0.250000
vt 0.875000 0.608478
vt 0.483846 0.423462
vt 0.466231 0.750000
vt 0.375000 0.641522
vt 0.516154 0.423462
vt 0.533768 0.750000
vt 0.625000 0.641522
vt 0.466231 0.500000
vt 0.483846 0.391154
vt 0.375000 0.608478
vt 0.533768 0.500000
vt 0.516154 0.391154
vt 0.625000 0.608478
s 0
usemtl None
f 1/1/1 2/4/1 4/10/1 3/7/1
f 3/8/2 4/11/2 8/22/2 7/19/2
f 7/20/3 8/23/3 6/16/3 5/13/3
f 5/14/4 6/17/4 2/5/4 1/2/4
f 3/9/5 7/21/5 5/15/5 1/3/5
f 8/24/6 4/12/6 2/6/6 6/18/6
o Cylinder.001
v -1.419070 0.104006 -2.377683
v -1.419070 2.092765 -1.561878
v -1.409884 0.103663 -2.376846
v -1.409884 2.092422 -1.561041
v -1.401052 0.102646 -2.374367
v -1.401052 2.091405 -1.558563
v -1.392912 0.100995 -2.370342
v -1.392912 2.089753 -1.554537
v -1.385777 0.098773 -2.364925
v -1.385777 2.087531 -1.549120
v -1.379922 0.096065 -2.358324
v -1.379922 2.084824 -1.542519
v -1.375571 0.092976 -2.350793
v -1.375571 2.081734 -1.534988
v -1.372892 0.089624 -2.342621
v -1.372892 2.078382 -1.526816
v -1.371987 0.086138 -2.334123
v -1.371987 2.074896 -1.518318
v -1.372892 0.082651 -2.325625
v -1.372892 2.071410 -1.509820
v -1.375571 0.079299 -2.317453
v -1.375571 2.068058 -1.501648
v -1.379922 0.076210 -2.309922
v -1.379922 2.064969 -1.494117
v -1.385777 0.073502 -2.303321
v -1.385777 2.062261 -1.487516
v -1.392912 0.071280 -2.297904
v -1.392912 2.060039 -1.482099
v -1.401052 0.069629 -2.293879
v -1.401052 2.058388 -1.478074
v -1.409884 0.068612 -2.291400
v -1.409884 2.057371 -1.475595
v -1.419070 0.068269 -2.290563
v -1.419070 2.057027 -1.474758
v -1.428255 0.068612 -2.291400
v -1.428255 2.057371 -1.475595
v -1.437087 0.069629 -2.293879
v -1.437087 2.058388 -1.478074
v -1.445227 0.071280 -2.297904
v -1.445227 2.060039 -1.482099
v -1.452362 0.073502 -2.303321
v -1.452362 2.062261 -1.487516
v -1.458218 0.076210 -2.309922
v -1.458218 2.064969 -1.494117
v -1.462568 0.079299 -2.317453
v -1.462568 2.068058 -1.501648
v -1.465248 0.082651 -2.325625
v -1.465248 2.071410 -1.509820
v -1.466152 0.086138 -2.334123
v -1.466152 2.074896 -1.518318
v -1.465248 0.089624 -2.342621
v -1.465248 2.078382 -1.526816
v -1.462568 0.092976 -2.350793
v -1.462568 2.081734 -1.534988
v -1.458218 0.096065 -2.358324
v -1.458218 2.084824 -1.542519
v -1.452362 0.098773 -2.364925
v -1.452362 2.087531 -1.549120
v -1.445227 0.100995 -2.370342
v -1.445227 2.089753 -1.554537
v -1.437087 0.102646 -2.374367
v -1.437087 2.091405 -1.558563
v -1.428255 0.103663 -2.376846
v -1.428255 2.092422 -1.561041
vn 0.0980 0.3777 -0.9207
vn 0.2903 0.3632 -0.8853
vn 0.4714 0.3347 -0.8159
vn 0.6344 0.2934 -0.7152
vn 0.7730 0.2408 -0.5869
vn 0.8819 0.1789 -0.4361
vn 0.9570 0.1102 -0.2685
vn 0.9952 0.0372 -0.0907
vn 0.9952 -0.0372 0.0907
vn 0.9570 -0.1102 0.2685
vn 0.8819 -0.1789 0.4361
vn 0.7730 -0.2408 0.5869
vn 0.6344 -0.2934 0.7152
vn 0.4714 -0.3347 0.8160
vn 0.2903 -0.3632 0.8853
vn 0.0980 -0.3777 0.9207
vn -0.0980 -0.3777 0.9207
vn -0.2903 -0.3632 0.8853
vn -0.4714 -0.3347 0.8160
vn -0.6344 -0.2934 0.7152
vn -0.7730 -0.2408 0.5870
vn -0.8820 -0.1789 0.4361
vn -0.9569 -0.1102 0.2686
vn -0.9952 -0.0372 0.0906
vn -0.9952 0.0372 -0.0906
vn -0.9569 0.1102 -0.2686
vn -0.8820 0.1789 -0.4361
vn -0.7730 0.2408 -0.5870
vn -0.6344 0.2934 -0.7152
vn -0.4714 0.3347 -0.8159
vn -0.0000 0.9252 0.3795
vn -0.2903 0.3632 -0.8853
vn -0.0980 0.3777 -0.9207
vn -0.0000 -0.9252 -0.3795
vt 0.567404 0.563923
vt 0.432596 0.563923
vt 0.750000 0.490000
vt 0.567404 0.936077
vt 0.250000 0.279959
vt 0.432596 0.936077
vt 0.563191 0.563923
vt 0.796822 0.485388
vt 0.563191 0.936077
vt 0.255845 0.279384
vt 0.558979 0.563923
vt 0.841844 0.471731
vt 0.558979 0.936077
vt 0.261465 0.277679
vt 0.554766 0.563923
vt 0.883337 0.449553
vt 0.554766 0.936077
vt 0.266645 0.274910
vt 0.550553 0.563923
vt 0.919706 0.419706
vt 0.550553 0.936077
vt 0.271184 0.271184
vt 0.546340 0.563923
vt 0.949553 0.383337
vt 0.546340 0.936077
vt 0.274910 0.266645
vt 0.542128 0.563923
vt 0.971731 0.341844
vt 0.542128 0.936077
vt 0.277679 0.261465
vt 0.537915 0.563923
vt 0.985388 0.296822
vt 0.537915 0.936077
vt 0.279384 0.255845
vt 0.533702 0.563923
vt 0.990000 0.250000
vt 0.533702 0.936077
vt 0.279959 0.250000
vt 0.529489 0.563923
vt 0.985388 0.203178
vt 0.529489 0.936077
vt 0.279384 0.244155
vt 0.525277 0.563923
vt 0.971731 0.158156
vt 0.525277 0.936077
vt 0.277679 0.238535
vt 0.521064 0.563923
vt 0.949553 0.116663
vt 0.521064 0.936077
vt 0.274910 0.233356
vt 0.516851 0.563923
vt 0.919706 0.080294
vt 0.516851 0.936077
vt 0.271184 0.228816
vt 0.512638 0.563923
vt 0.883337 0.050447
vt 0.512638 0.936077
vt 0.266645 0.225090
vt 0.508426 0.563923
vt 0.841844 0.028269
vt 0.508426 0.936077
vt 0.261465 0.222321
vt 0.504213 0.563923
vt 0.796822 0.014612
vt 0.504213 0.936077
vt 0.255845 0.220616
vt 0.500000 0.563923
vt 0.750000 0.010000
vt 0.500000 0.936077
vt 0.250000 0.220041
vt 0.495787 0.563923
vt 0.703178 0.014612
vt 0.495787 0.936077
vt 0.244155 0.220616
vt 0.491574 0.563923
vt 0.658156 0.028269
vt 0.491574 0.936077
vt 0.238535 0.222321
vt 0.487362 0.563923
vt 0.616663 0.050447
vt 0.487362 0.936077
vt 0.233356 0.225090
vt 0.483149 0.563923
vt 0.580294 0.080294
vt 0.483149 0.936077
vt 0.228816 0.228816
vt 0.478936 0.563923
vt 0.550447 0.116663
vt 0.478936 0.936077
vt 0.225090 0.233356
vt 0.474723 0.563923
vt 0.528269 0.158156
vt 0.474723 0.936077
vt 0.222321 0.238535
vt 0.470511 0.563923
vt 0.514612 0.203178
vt 0.470511 0.936077
vt 0.220616 0.244155
vt 0.466298 0.563923
vt 0.510000 0.250000
vt 0.466298 0.936077
vt 0.220041 0.250000
vt 0.462085 0.563923
vt 0.514612 0.296822
vt 0.462085 0.936077
vt 0.220616 0.255845
vt 0.457872 0.563923
vt 0.528269 0.341844
vt 0.457872 0.936077
vt 0.222321 0.261465
vt 0.453660 0.563923
vt 0.550447 0.383337
vt 0.453660 0.936077
vt 0.225090 0.266645
vt 0.449447 0.563923
vt 0.580294 0.419706
vt 0.449447 0.936077
vt 0.228816 0.271184
vt 0.445234 0.563923
vt 0.616663 0.449553
vt 0.445234 0.936077
vt 0.233356 0.274910
vt 0.441021 0.563923
vt 0.658156 0.471731
vt 0.238535 0.277679
vt 0.441021 0.936077
vt 0.436809 0.563923
vt 0.703178 0.485388
vt 0.244155 0.279384
vt 0.436809 0.936077
s 0
usemtl None
f 9/25/7 10/28/7 12/33/7 11/31/7
f 11/31/8 12/33/8 14/37/8 13/35/8
f 13/35/9 14/37/9 16/41/9 15/39/9
f 15/39/10 16/41/10 18/45/10 17/43/10
f 17/43/11 18/45/11 20/49/11 19/47/11
f 19/47/12 20/49/12 22/53/12 21/51/12
f 21/51/13 22/53/13 24/57/13 23/55/13
f 23/55/14 24/57/14 26/61/14 25/59/14
f 25/59/15 26/61/15 28/65/15 27/63/15
f 27/63/16 28/65/16 30/69/16 29/67/16
f 29/67/17 30/69/17 32/73/17 31/71/17
f 31/71/18 32/73/18 34/77/18 33/75/18
f 33/75/19 34/77/19 36/81/19 35/79/19
f 35/79/20 36/81/20 38/85/20 37/83/20
f 37/83/21 38/85/21 40/89/21 39/87/21
f 39/87/22 40/89/22 42/93/22 41/91/22
f 41/91/23 42/93/23 44/97/23 43/95/23
f 43/95/24 44/97/24 46/101/24 45/99/24
f 45/99/25 46/101/25 48/105/25 47/103/25
f 47/103/26 48/105/26 50/109/26 49/107/26
f 49/107/27 50/109/27 52/113/27 51/111/27
f 51/111/28 52/113/28 54/117/28 53/115/28
f 53/115/29 54/117/29 56/121/29 55/119/29
f 55/119/30 56/121/30 58/125/30 57/123/30
f 57/123/31 58/125/31 60/129/31 59/127/31
f 59/127/32 60/129/32 62/133/32 61/131/32
f 61/131/33 62/133/33 64/137/33 63/135/33
f 63/135/34 64/137/34 66/141/34 65/139/34
f 65/139/35 66/141/35 68/145/35 67/143/35
f 67/143/36 68/145/36 70/150/36 69/147/36
f 12/34/37 10/29/37 72/153/37 70/149/37 68/146/37 66/142/37 64/138/37 62/134/37 60/130/37 58/126/37 56/122/37 54/118/37 52/114/37 50/110/37 48/106/37 46/102/37 44/98/37 42/94/37 40/90/37 38/86/37 36/82/37 34/78/37 32/74/37 30/70/37 28/66/37 26/62/37 24/58/37 22/54/37 20/50/37 18/46/37 16/42/37 14/38/37
f 69/147/38 70/150/38 72/154/38 71/151/38
f 71/151/39 72/154/39 10/30/39 9/26/39
f 9/27/40 11/32/40 13/36/40 15/40/40 17/44/40 19/48/40 21/52/40 23/56/40 25/60/40 27/64/40 29/68/40 31/72/40 33/76/40 35/80/40 37/84/40 39/88/40 41/92/40 43/96/40 45/100/40 47/104/40 49/108/40 51/112/40 53/116/40 55/120/40 57/124/40 59/128/40 61/132/40 63/136/40 65/140/40 67/144/40 69/148/40 71/152/40
