# Blender 3.3.1
# www.blender.org
mtllib Horno_UV.mtl
o Estufa.001
v 1.480000 -0.000000 2.650000
v 1.480000 1.799999 2.650000
v 1.480000 -0.000000 1.150000
v 1.480000 1.800000 1.150000
v 2.920000 -0.000000 2.650000
v 2.920000 1.799999 2.650000
v 2.920000 -0.000000 1.150000
v 2.920000 1.800000 1.150000
vn -1.0000 -0.0000 -0.0000
vn -0.0000 -0.0000 -1.0000
vn 1.0000 -0.0000 -0.0000
vn -0.0000 -0.0000 1.0000
vn -0.0000 -1.0000 -0.0000
vn -0.0000 1.0000 -0.0000
vt 0.306163 0.755048
vt 0.306374 0.245162
vt 0.000105 0.755048
vt 0.306374 0.244952
vt 0.306163 0.500000
vt 0.561422 0.245162
vt 0.000105 0.500000
vt 0.561422 0.244952
vt 0.306163 0.000105
vt 0.306163 0.999895
vt 0.306374 0.490009
vt 0.000105 0.000105
vt 0.000105 0.999895
vt 0.306374 0.000105
vt 0.306163 0.255154
vt 0.561422 0.490009
vt 0.000105 0.255154
vt 0.561422 0.000105
s 0
usemtl None
f 1/1/1 2/3/1 4/7/1 3/5/1
f 3/5/2 4/7/2 8/17/2 7/15/2
f 7/15/3 8/17/3 6/12/3 5/9/3
f 5/10/4 6/13/4 2/3/4 1/1/4
f 3/6/5 7/16/5 5/11/5 1/2/5
f 8/18/6 4/8/6 2/4/6 6/14/6
