# Blender v3.2.2 OBJ File: 'Intento 1.blend'
# www.blender.org
mtllib Mesa.mtl
o Cube.001_Cube.010
v -2.654182 1.026779 1.817015
v -2.654182 1.244977 1.817015
v -2.654182 1.026779 -1.817015
v -2.654182 1.244977 -1.817015
v -0.088207 1.026779 1.817015
v -0.088207 1.244977 1.817015
v -0.088207 1.026779 -1.817015
v -0.088207 1.244977 -1.817015
v -2.654182 1.026779 1.617667
v -2.654182 1.026779 -1.617667
v -2.654182 1.244977 -1.617667
v -2.654182 1.244977 1.617667
v -0.088207 1.026779 -1.617667
v -0.088207 1.026779 1.617667
v -0.088207 1.244977 1.617667
v -0.088207 1.244977 -1.617667
v -2.469843 1.244977 1.817015
v -0.272547 1.244977 1.817015
v -0.272547 1.026779 1.817015
v -2.469843 1.026779 1.817015
v -2.469843 1.244977 -1.817015
v -0.272547 1.244977 -1.817015
v -2.469843 1.026779 -1.817015
v -0.272547 1.026779 -1.817015
v -2.469843 1.244977 1.617667
v -0.272547 1.244977 1.617667
v -0.272547 1.244977 -1.617667
v -2.469843 1.244977 -1.617667
v -2.469843 1.026779 1.617667
v -0.272547 1.026779 1.617667
v -0.272547 1.026779 -1.617667
v -2.469843 1.026779 -1.617667
v -2.654182 0.015356 1.617667
v -2.654182 0.015356 1.817015
v -2.654182 0.015356 -1.617667
v -2.654182 0.015356 -1.817015
v -0.088207 0.015356 -1.817015
v -0.088207 0.015356 -1.617667
v -0.088207 0.015356 1.617667
v -0.088207 0.015356 1.817015
v -0.272547 0.015356 1.617667
v -0.272547 0.015356 1.817015
v -2.469843 0.015356 1.817015
v -2.469843 0.015356 1.617667
v -0.272547 0.015356 -1.817015
v -0.272547 0.015356 -1.617667
v -2.469843 0.015356 -1.617667
v -2.469843 0.015356 -1.817015
vt 0.375000 0.250000
vt 0.625000 0.250000
vt 0.625000 0.267960
vt 0.375000 0.267960
vt 0.857040 0.500000
vt 0.875000 0.500000
vt 0.875000 0.513714
vt 0.857040 0.513714
vt 0.142960 0.736286
vt 0.125000 0.736286
vt 0.125000 0.513714
vt 0.142960 0.513714
vt 0.625000 0.736286
vt 0.642960 0.736286
vt 0.642960 0.750000
vt 0.625000 0.750000
vt 0.375000 0.236286
vt 0.625000 0.236286
vt 0.375000 0.500000
vt 0.625000 0.500000
vt 0.625000 0.513714
vt 0.375000 0.513714
vt 0.375000 0.750000
vt 0.625000 0.767960
vt 0.375000 0.767960
vt 0.642960 0.500000
vt 0.642960 0.513714
vt 0.375000 0.736286
vt 0.875000 0.736286
vt 0.857040 0.736286
vt 0.357040 0.736286
vt 0.357040 0.513714
vt 0.375000 0.013714
vt 0.625000 0.013714
vt 0.375000 0.000000
vt 0.625000 0.000000
vt 0.375000 0.250000
vt 0.375000 0.236286
vt 0.375000 0.736286
vt 0.357040 0.736286
vt 0.357040 0.750000
vt 0.357040 0.750000
vt 0.375000 0.982040
vt 0.625000 0.982040
vt 0.625000 1.000000
vt 0.375000 1.000000
vt 0.125000 0.513714
vt 0.142960 0.513714
vt 0.375000 0.482040
vt 0.625000 0.482040
vt 0.142960 0.750000
vt 0.357040 0.500000
vt 0.142960 0.500000
vt 0.857040 0.750000
vt 0.875000 0.750000
vt 0.357040 0.500000
vt 0.375000 0.500000
vt 0.375000 0.513714
vt 0.357040 0.513714
vt 0.375000 0.750000
vt 0.125000 0.736286
vt 0.142960 0.736286
vt 0.142960 0.750000
vt 0.125000 0.750000
vt 0.125000 0.500000
vt 0.142960 0.500000
vt 0.375000 0.767960
vt 0.375000 0.482040
vt 0.375000 1.000000
vt 0.375000 0.982040
vt 0.375000 0.013714
vt 0.375000 0.000000
vt 0.375000 0.267960
vn 0.0000 0.0000 -1.0000
vn 0.0000 1.0000 0.0000
vn 0.0000 -1.0000 0.0000
vn -1.0000 0.0000 0.0000
vn 1.0000 0.0000 0.0000
vn 0.0000 0.0000 1.0000
usemtl None
s off
f 3/1/1 4/2/1 21/3/1 23/4/1
f 21/5/2 4/6/2 11/7/2 28/8/2
f 29/9/3 9/10/3 10/11/3 32/12/3
f 15/13/2 26/14/2 18/15/2 6/16/2
f 10/17/4 11/18/4 4/2/4 3/1/4
f 7/19/5 8/20/5 16/21/5 13/22/5
f 5/23/6 6/16/6 18/24/6 19/25/6
f 8/20/2 22/26/2 27/27/2 16/21/2
f 14/28/5 15/13/5 6/16/5 5/23/5
f 12/29/2 25/30/2 28/8/2 11/7/2
f 14/28/3 30/31/3 31/32/3 13/22/3
f 15/13/5 14/28/5 13/22/5 16/21/5
f 11/18/4 10/17/4 9/33/4 12/34/4
f 1/35/4 2/36/4 12/34/4 9/33/4
f 26/14/2 15/13/2 16/21/2 27/27/2
f 10/17/4 3/1/4 36/37/4 35/38/4
f 30/31/1 14/28/1 39/39/1 41/40/1
f 19/41/4 30/31/4 41/40/4 42/42/4
f 20/43/6 17/44/6 2/45/6 1/46/6
f 32/12/6 10/11/6 35/47/6 47/48/6
f 24/49/1 22/50/1 8/20/1 7/19/1
f 30/31/3 19/41/3 20/51/3 29/9/3
f 24/52/3 31/32/3 32/12/3 23/53/3
f 26/14/2 27/27/2 28/8/2 25/30/2
f 29/9/3 32/12/3 31/32/3 30/31/3
f 25/30/2 17/54/2 18/15/2 26/14/2
f 17/44/6 20/43/6 19/25/6 18/24/6
f 22/50/1 24/49/1 23/4/1 21/3/1
f 21/5/2 28/8/2 27/27/2 22/26/2
f 25/30/2 12/29/2 2/55/2 17/54/2
f 45/56/3 37/57/3 38/58/3 46/59/3
f 41/40/3 39/39/3 40/60/3 42/42/3
f 33/61/3 44/62/3 43/63/3 34/64/3
f 36/65/3 48/66/3 47/48/3 35/47/3
f 13/22/6 31/32/6 46/59/6 38/58/6
f 7/19/5 13/22/5 38/58/5 37/57/5
f 29/9/5 20/51/5 43/63/5 44/62/5
f 14/28/5 5/23/5 40/60/5 39/39/5
f 5/23/6 19/25/6 42/67/6 40/60/6
f 24/49/1 7/19/1 37/57/1 45/68/1
f 31/32/4 24/52/4 45/56/4 46/59/4
f 20/43/6 1/46/6 34/69/6 43/70/6
f 1/35/4 9/33/4 33/71/4 34/72/4
f 23/53/5 32/12/5 47/48/5 48/66/5
f 3/1/1 23/4/1 48/73/1 36/37/1
f 9/10/1 29/9/1 44/62/1 33/61/1
