# Blender 3.3.1
# www.blender.org
mtllib Tabla_Uv.mtl
o Plane.002
v -2.110114 1.250549 2.319826
v -0.874003 1.250549 2.319826
v -2.110114 1.250549 1.083715
v -0.874003 1.250549 1.083715
v -2.110114 1.283839 1.083715
v -2.110114 1.283839 2.319826
v -0.874003 1.283839 2.319826
v -0.874003 1.283839 1.083715
vn -0.0000 -1.0000 -0.0000
vn -0.0000 1.0000 -0.0000
vn 1.0000 -0.0000 -0.0000
vn -1.0000 -0.0000 -0.0000
vn -0.0000 -0.0000 -1.0000
vn -0.0000 -0.0000 1.0000
vt 0.250030 0.000058
vt 0.506966 0.250026
vt 0.000058 0.000058
vt 0.506966 0.499996
vt 0.250030 0.250030
vt 0.506966 0.000058
vt 0.506966 0.999942
vt 0.000058 0.250030
vt 0.506966 0.749968
vt 0.250146 0.000058
vt 0.500234 0.000058
vt 0.500234 0.999942
vt 0.500117 0.000058
vt 0.500234 0.250026
vt 0.500117 0.250030
vt 0.500234 0.499996
vt 0.250146 0.250030
vt 0.500234 0.749968
s 0
usemtl None
f 1/1/1 3/5/1 4/8/1 2/3/1
f 6/13/2 7/15/2 8/17/2 5/10/2
f 2/4/3 4/9/3 8/18/3 7/16/3
f 3/6/4 1/2/4 6/14/4 5/11/4
f 4/9/5 3/7/5 5/12/5 8/18/5
f 1/2/6 2/4/6 7/16/6 6/14/6
